<?xml version="1.0" encoding="UTF-8"?>
<svg width="41px" height="41px" viewBox="0 0 41 41" version="1.1" xmlns="http://www.w3.org/2000/svg" xmlns:xlink="http://www.w3.org/1999/xlink">
    <!-- Generator: Sketch 43.2 (39069) - http://www.bohemiancoding.com/sketch -->
    <title>ion-power - Ionicons</title>
    <desc>Created with Sketch.</desc>
    <defs></defs>
    <g id="Page-1" stroke="none" stroke-width="1" fill="none" fill-rule="evenodd">
        <g id="Desktop" transform="translate(-736.000000, -287.000000)" fill="#999999">
            <path d="M756.1,307.75 C755.266663,307.75 754.582146,307.482146 754.046429,306.946429 C753.510712,306.410712 753.242857,305.726195 753.242857,304.892857 L753.242857,290.607143 C753.242857,289.773805 753.510712,289.089288 754.046429,288.553571 C754.582146,288.017854 755.266663,287.75 756.1,287.75 C756.933337,287.75 757.617854,288.017854 758.153571,288.553571 C758.689288,289.089288 758.957143,289.773805 758.957143,290.607143 L758.957143,304.892857 C758.957143,305.726195 758.689288,306.410712 758.153571,306.946429 C757.617854,307.482146 756.933337,307.75 756.1,307.75 Z M767.082143,291.053571 C769.879776,292.898819 772.082135,295.279747 773.689286,298.196429 C775.296437,301.11311 776.1,304.297602 776.1,307.75 C776.1,313.285742 774.150615,318.002957 770.251786,321.901786 C766.352957,325.800615 761.635742,327.75 756.1,327.75 C750.564258,327.75 745.847043,325.800615 741.948214,321.901786 C738.049385,318.002957 736.1,313.285742 736.1,307.75 C736.1,304.297602 736.903563,301.11311 738.510714,298.196429 C740.117865,295.279747 742.320224,292.898819 745.117857,291.053571 C745.59405,290.755951 746.099997,290.607143 746.635714,290.607143 C747.469052,290.607143 748.153569,290.874997 748.689286,291.410714 C749.225003,291.946431 749.492857,292.630948 749.492857,293.464286 C749.492857,294.000003 749.344049,294.50595 749.046429,294.982143 C748.808332,295.339287 748.600001,295.57738 748.421429,295.696429 C748.421429,295.755953 748.361905,295.815476 748.242857,295.875 L748.064286,295.964286 C747.1119,296.678575 746.427383,297.244046 746.010714,297.660714 C743.213081,300.458347 741.814286,303.821409 741.814286,307.75 C741.814286,311.678591 743.213081,315.041653 746.010714,317.839286 C748.808347,320.636919 752.171409,322.035714 756.1,322.035714 C760.028591,322.035714 763.391653,320.636919 766.189286,317.839286 C768.986919,315.041653 770.385714,311.678591 770.385714,307.75 C770.385714,303.821409 768.986919,300.458347 766.189286,297.660714 C765.772617,297.244046 765.0881,296.678575 764.135714,295.964286 C764.07619,295.904762 763.957144,295.815477 763.778571,295.696429 C763.599999,295.57738 763.391668,295.339287 763.153571,294.982143 C762.855951,294.50595 762.707143,294.000003 762.707143,293.464286 C762.707143,292.630948 762.974997,291.946431 763.510714,291.410714 C764.046431,290.874997 764.730948,290.607143 765.564286,290.607143 C766.100003,290.607143 766.60595,290.755951 767.082143,291.053571 Z" id="ion-power---Ionicons"></path>
        </g>
    </g>
</svg>